# xmcd CD database file
#
# Track frame offsets:
#	150
#	10642
#	20522
#	31400
#	43969
#	53632
#	61973
#	73619
#	84366
#	103039
#	118837
#	127541
#	137662
#	146132
#	159008
#	167325
#	178742
#	187374
#	197876
#	208285
#	223645
#	236853
#	250476
#	260990
#	269235
#	284079
#	296424
#	304814
#
# Disc length: 4267 seconds
#
# Revision: 0
# Processed by: cddbd v1.5.2PL0 Copyright (c) Steve Scherf et al.
# Submitted via: CDex 2.13
#
DISCID=ba10a91c
DTITLE=Jimmy Driftwood - BAttle Of New Orleans
DYEAR=2019
DGENRE=Country
TTITLE0=Road To Ohlamette (Answer To Battle Of New Orleans)
TTITLE1=Arkansas Traveler
TTITLE2=BAnjer Pickin' Man
TTITLE3=Big Hoss
TTITLE4=Big River Man
TTITLE5=First Covered Wagon
TTITLE6=I'm Leavin' On The Wagon Train
TTITLE7=Marshal Of Silver City
TTITLE8=On Top Of Shiloh's Hill
TTITLE9=Battle Of New Orleans
TTITLE10=Pony Express I've Got To Carry The Mail
TTITLE11=Razonback Steak
TTITLE12=Roc Of Chickamauga
TTITLE13=Row Bullies Row
TTITLE14=She's Got A Sugar Lip
TTITLE15=Shanty In the Holler
TTITLE16=Shoot The Buffalo
TTITLE17=Song Of The Cowboys
TTITLE18=Song Of The Pioneer
TTITLE19=Tennessee Stud
TTITLE20=Tucumcari
TTITLE21=When I Swim The Golden River
TTITLE22=23 Rodoers Of Bowling Green
TTITLE23=Won't you Come Along And go
TTITLE24=Zelma Lee
TTITLE25=Sweet Betsy From Pike
TTITLE26=Land Where The Bluegrass Grows
TTITLE27=Wilderness Road
EXTD=YEAR: 2019
EXTT0=
EXTT1=
EXTT2=
EXTT3=
EXTT4=
EXTT5=
EXTT6=
EXTT7=
EXTT8=
EXTT9=
EXTT10=
EXTT11=
EXTT12=
EXTT13=
EXTT14=
EXTT15=
EXTT16=
EXTT17=
EXTT18=
EXTT19=
EXTT20=
EXTT21=
EXTT22=
EXTT23=
EXTT24=
EXTT25=
EXTT26=
EXTT27=
PLAYORDER=
